<?xml version="1.0" encoding="UTF-8"?>
<svg version="1.1" xmlns="http://www.w3.org/2000/svg" width="48" height="48">
<path d="M0 0 C3.39536357 0.60631492 5.30660868 1.89578803 8 4 C9.31836295 4.69580267 10.64791086 5.37224433 12 6 C11.875 7.8125 11.875 7.8125 11 10 C9.700625 10.61875 9.700625 10.61875 8.375 11.25 C5.05159687 12.97324607 3.99290893 14.03681666 1.75 16.875 C-3.04738662 22.53988791 -8.10458787 25.55333753 -15.54296875 26.40625 C-21.93174455 26.56782073 -26.40595623 26.31258325 -32 23 C-36.43366239 18.10768288 -36 14.91594671 -36 8 C-24.45 8 -12.9 8 -1 8 C-1 6.02 -1 4.04 -1 2 C-0.67 1.34 -0.34 0.68 0 0 Z " fill="#1A81C1" transform="translate(36,16)"/>
<path d="M0 0 C1.65 0 3.3 0 5 0 C5 1.65 5 3.3 5 5 C3.35 5 1.7 5 0 5 C0 3.35 0 1.7 0 0 Z " fill="#1981C0" transform="translate(28,18)"/>
<path d="M0 0 C1.65 0 3.3 0 5 0 C5 1.65 5 3.3 5 5 C3.35 5 1.7 5 0 5 C0 3.35 0 1.7 0 0 Z " fill="#2084C2" transform="translate(22,18)"/>
<path d="M0 0 C1.65 0 3.3 0 5 0 C5 1.65 5 3.3 5 5 C3.35 5 1.7 5 0 5 C0 3.35 0 1.7 0 0 Z " fill="#2688C4" transform="translate(16,18)"/>
<path d="M0 0 C1.65 0 3.3 0 5 0 C5 1.65 5 3.3 5 5 C3.35 5 1.7 5 0 5 C0 3.35 0 1.7 0 0 Z " fill="#2C8BC5" transform="translate(10,18)"/>
<path d="M0 0 C1.65 0 3.3 0 5 0 C5 1.65 5 3.3 5 5 C3.35 5 1.7 5 0 5 C0 3.35 0 1.7 0 0 Z " fill="#338FC7" transform="translate(4,18)"/>
<path d="M0 0 C1.65 0 3.3 0 5 0 C5 1.65 5 3.3 5 5 C3.35 5 1.7 5 0 5 C0 3.35 0 1.7 0 0 Z " fill="#2386C3" transform="translate(22,12)"/>
<path d="M0 0 C1.65 0 3.3 0 5 0 C5 1.65 5 3.3 5 5 C3.35 5 1.7 5 0 5 C0 3.35 0 1.7 0 0 Z " fill="#2989C4" transform="translate(16,12)"/>
<path d="M0 0 C1.65 0 3.3 0 5 0 C5 1.65 5 3.3 5 5 C3.35 5 1.7 5 0 5 C0 3.35 0 1.7 0 0 Z " fill="#2F8DC6" transform="translate(10,12)"/>
<path d="M0 0 C1.65 0 3.3 0 5 0 C5 1.65 5 3.3 5 5 C3.35 5 1.7 5 0 5 C0 3.35 0 1.7 0 0 Z " fill="#2587C3" transform="translate(22,6)"/>
</svg>
