<?xml version="1.0" encoding="UTF-8"?>
<svg version="1.1" xmlns="http://www.w3.org/2000/svg" width="48" height="48">
<path d="M0 0 C1.00619385 -0.00580078 2.0123877 -0.01160156 3.04907227 -0.01757812 C7.11607463 0.22326906 10.09097498 0.45468512 13.18603516 3.24609375 C14.71557766 5.26729171 15.98978578 7.30323032 17.25 9.5 C18.19555193 10.84242769 19.15213191 12.17723463 20.125 13.5 C22.74889874 17.19656175 22.97264078 21.11943495 22.25 25.5 C21.10174928 28.195893 19.56769583 30.49172581 17.875 32.875 C17.25625 33.79732422 17.25625 33.79732422 16.625 34.73828125 C12.17703233 41.2954465 12.17703233 41.2954465 9.0703125 41.98095703 C-8.49995493 43.78572907 -8.49995493 43.78572907 -13.81201172 40.04980469 C-18.47537159 34.95783215 -21.81403106 28.45731518 -22.1953125 21.5 C-21.81323321 14.52812626 -18.47304658 8.07114253 -13.79443359 2.9765625 C-9.63659747 -0.02637431 -4.97972954 0.0031238 0 0 Z M-1.75 19.5 C-1.75 20.82 -1.75 22.14 -1.75 23.5 C-0.1 23.17 1.55 22.84 3.25 22.5 C2.92 21.51 2.59 20.52 2.25 19.5 C0.93 19.5 -0.39 19.5 -1.75 19.5 Z " fill="#060606" transform="translate(23.75,3.5)"/>
<path d="M0 0 C3.89098258 1.0733745 5.53860892 3.24927428 7.62890625 6.59375 C8.4921875 8.6875 8.4921875 8.6875 8.0546875 11.375 C7.5390625 12.138125 7.0234375 12.90125 6.4921875 13.6875 C6.08613281 14.5434375 5.68007813 15.399375 5.26171875 16.28125 C3.4921875 18.6875 3.4921875 18.6875 0.75 19.45703125 C-7.43941143 19.56935485 -7.43941143 19.56935485 -10.4765625 17.0625 C-12.62467369 13.91193692 -13.69173351 11.81730052 -13.0703125 8 C-12.5546875 7.236875 -12.0390625 6.47375 -11.5078125 5.6875 C-11.0128125 4.759375 -10.5178125 3.83125 -10.0078125 2.875 C-6.68067783 -0.03624284 -4.34213361 -0.20615471 0 0 Z M-4.5078125 8.6875 C-4.5078125 10.0075 -4.5078125 11.3275 -4.5078125 12.6875 C-2.8578125 12.3575 -1.2078125 12.0275 0.4921875 11.6875 C0.1621875 10.6975 -0.1678125 9.7075 -0.5078125 8.6875 C-1.8278125 8.6875 -3.1478125 8.6875 -4.5078125 8.6875 Z " fill="#F5F5F5" transform="translate(26.5078125,14.3125)"/>
<path d="M0 0 C0.99 1.98 1.98 3.96 3 6 C-3.6 6 -10.2 6 -17 6 C-17.66 7.65 -18.32 9.3 -19 11 C-21.125 13.3125 -21.125 13.3125 -23 15 C-26 9 -26 9 -25.390625 7.03125 C-20.66832222 -3.44838083 -9.79577972 -0.80372106 0 0 Z " fill="#F8F8F8" transform="translate(34,7)"/>
<path d="M0 0 C3.1875 -0.5 3.1875 -0.5 7 0 C9.3925985 2.33023219 11.06362773 4.78717778 12 8 C10.83170426 12.22275568 8.49399149 16.02759116 6.3125 19.8125 C5.99861328 20.40998047 5.68472656 21.00746094 5.36132812 21.62304688 C4.36328125 23.33203125 4.36328125 23.33203125 2 26 C-1.76953125 26.38671875 -1.76953125 26.38671875 -5 26 C-4.06652642 24.24784894 -3.1280468 22.49836437 -2.1875 20.75 C-1.66542969 19.77546875 -1.14335937 18.8009375 -0.60546875 17.796875 C1 15 1 15 2.70703125 12.7890625 C4.25151607 11.04612365 4.25151607 11.04612365 3.875 8.625 C2.85906932 5.57720797 1.51383254 2.83020866 0 0 Z " fill="#F6F6F6" transform="translate(32,15)"/>
<path d="M0 0 C4.05204951 1.35068317 4.87548363 3.39577729 7.1875 6.9375 C7.90292969 8.01902344 8.61835938 9.10054687 9.35546875 10.21484375 C11 13 11 13 11 15 C14.3 15 17.6 15 21 15 C19.125 19.875 19.125 19.875 18 21 C14.34860858 22.18024773 11.63143098 22.28489156 8 21 C5.73344276 18.84284715 4.0304223 16.41819524 2.3125 13.8125 C1.86656494 13.14025391 1.42062988 12.46800781 0.96118164 11.77539062 C-0.95568321 8.63125774 -2.04677478 6.81475148 -1.83203125 3.07421875 C-1 1 -1 1 0 0 Z " fill="#F6F6F6" transform="translate(6,20)"/>
<path d="M0 0 C0.66 0.33 1.32 0.66 2 1 C1.00928652 3.74351424 0.18493476 5.78864599 -1.75 8 C-2.1625 8.66 -2.575 9.32 -3 10 C-2.37466625 12.52363988 -2.37466625 12.52363988 -1 15 C-0.34 16.65 0.32 18.3 1 20 C4.96 20 8.92 20 13 20 C13.66 18.35 14.32 16.7 15 15 C15.433125 14.154375 15.86625 13.30875 16.3125 12.4375 C16.539375 11.633125 16.76625 10.82875 17 10 C15.69655172 7.78963709 15.69655172 7.78963709 14 6 C14 5.34 14 4.68 14 4 C17.16115776 5.36983503 17.9927092 5.9890638 20 9 C19.75369466 13.60034807 17.37046277 17.04329862 14.9375 20.8125 C14.56044922 21.40998047 14.18339844 22.00746094 13.79492188 22.62304688 C12.87010434 24.08636577 11.93597935 25.54379523 11 27 C10.34 26.67 9.68 26.34 9 26 C9.33 24.68 9.66 23.36 10 22 C9.3709375 22.13921875 8.741875 22.2784375 8.09375 22.421875 C5.03445875 22.80889377 2.98306357 22.85351111 0 22 C-3.3704509 18.41418483 -8 13.15240018 -8 8 C-7.01 8 -6.02 8 -5 8 C-3.5305191 6.23267901 -3.5305191 6.23267901 -2.3125 4 C-1.87550781 3.2575 -1.43851563 2.515 -0.98828125 1.75 C-0.66214844 1.1725 -0.33601563 0.595 0 0 Z " fill="#101010" transform="translate(17,13)"/>
<path d="M0 0 C0.66 0.66 1.32 1.32 2 2 C1.8125 5.5 1.8125 5.5 1 9 C-2.22143276 11.14762184 -3.2595467 11.561068 -7 11 C-9.2855347 8.87208838 -9.92303658 7.52591672 -10.375 4.4375 C-10 2 -10 2 -8.9375 0.125 C-5.82785011 -1.68060316 -3.38260527 -0.79952488 0 0 Z M-6 4 C-6 5.32 -6 6.64 -6 8 C-4.35 7.67 -2.7 7.34 -1 7 C-1.33 6.01 -1.66 5.02 -2 4 C-3.32 4 -4.64 4 -6 4 Z " fill="#0F0F0F" transform="translate(28,19)"/>
<path d="M0 0 C0.66 0.33 1.32 0.66 2 1 C1.00928652 3.74351424 0.18493476 5.78864599 -1.75 8 C-2.1625 8.66 -2.575 9.32 -3 10 C-2.38858872 12.57114212 -2.38858872 12.57114212 -1 15 C-0.443125 16.1446875 -0.443125 16.1446875 0.125 17.3125 C0.41375 17.869375 0.7025 18.42625 1 19 C0.01 19 -0.98 19 -2 19 C-3.60546875 17.1015625 -3.60546875 17.1015625 -5.1875 14.625 C-5.98220703 13.40683594 -5.98220703 13.40683594 -6.79296875 12.1640625 C-8 10 -8 10 -8 8 C-7.01 8 -6.02 8 -5 8 C-3.5305191 6.23267901 -3.5305191 6.23267901 -2.3125 4 C-1.87550781 3.2575 -1.43851563 2.515 -0.98828125 1.75 C-0.66214844 1.1725 -0.33601563 0.595 0 0 Z " fill="#202020" transform="translate(17,13)"/>
<path d="M0 0 C3.16115776 1.36983503 3.9927092 1.9890638 6 5 C5.67873872 7.63434254 5.18644952 9.62710097 4 12 C3.01 11.67 2.02 11.34 1 11 C1.391875 10.2575 1.78375 9.515 2.1875 8.75 C2.455625 7.8425 2.72375 6.935 3 6 C1.69655172 3.78963709 1.69655172 3.78963709 0 2 C0 1.34 0 0.68 0 0 Z " fill="#222222" transform="translate(31,17)"/>
<path d="M0 0 C0.66 0.33 1.32 0.66 2 1 C0.8141763 4.37503669 -0.27573689 6.64722731 -3 9 C-3 4.72290301 -2.29379749 3.44069624 0 0 Z " fill="#2D2D2D" transform="translate(17,13)"/>
</svg>
