<?xml version="1.0" encoding="UTF-8"?>
<svg version="1.1" xmlns="http://www.w3.org/2000/svg" width="426" height="428">
<path d="M0 0 C0.94534491 -0.00226556 1.89068982 -0.00453111 2.86468154 -0.00686532 C6.00475587 -0.01315117 9.14478644 -0.01237946 12.28486633 -0.0115509 C14.54768936 -0.01454579 16.81051188 -0.01794908 19.07333374 -0.02172852 C25.2016552 -0.03053952 31.32996268 -0.03290542 37.45828986 -0.0335443 C41.29275961 -0.0342565 45.12722584 -0.03639403 48.96169472 -0.03904152 C61.66493798 -0.0478092 74.36816966 -0.05246242 87.07141521 -0.05171105 C87.7548033 -0.05167109 88.43819139 -0.05163113 89.14228821 -0.05158997 C89.82652116 -0.05154909 90.51075412 -0.0515082 91.21572141 -0.05146609 C102.29505968 -0.05105996 113.37436391 -0.06062343 124.45369234 -0.07472833 C135.8593008 -0.08913278 147.26488581 -0.09581363 158.67050487 -0.09513456 C165.06202617 -0.09488037 171.45350892 -0.09768769 177.8450222 -0.10831261 C183.86069164 -0.11804024 189.87628605 -0.11804092 195.89195824 -0.11079597 C198.09003306 -0.10975589 200.28811268 -0.11207848 202.48617935 -0.11815643 C236.63980603 -0.20642065 264.98443764 7.05678154 290.23921204 31.22355652 C303.36003491 44.27855587 311.22262474 60.53563102 316.09077454 78.13371277 C316.37356262 79.14957458 316.37356262 79.14957458 316.6620636 80.18595886 C320.12530831 94.00385882 319.23994599 108.84694288 319.23603821 122.98405457 C319.23903577 125.16216082 319.24243966 127.34026654 319.24621582 129.51837158 C319.2549991 135.39879889 319.25739153 141.27921161 319.25803161 147.15964484 C319.25874532 150.84340867 319.26088568 154.52716886 319.26352882 158.21093178 C319.27276336 171.09038653 319.27686607 183.96983098 319.27607727 196.84928894 C319.27547694 208.80981382 319.28602498 220.77029354 319.30182093 232.73080701 C319.31494282 243.03788484 319.32025923 253.34494799 319.31962186 263.6520341 C319.31936825 269.79099515 319.32214347 275.929916 319.33279991 282.06886864 C319.34255955 287.84822105 319.34250677 293.62749548 319.33528328 299.40685081 C319.33424716 301.51294571 319.33654158 303.61904568 319.34264374 305.72513199 C319.36966079 315.70591579 319.22566602 325.59214232 318.20840454 335.52807617 C318.13192064 336.27939778 318.05543675 337.03071939 317.97663516 337.80480832 C314.90630212 364.44773856 298.67436075 388.63785283 278.09077454 405.13371277 C255.5073317 421.74907456 231.39713944 425.76233367 203.88105774 425.63542175 C201.51015402 425.63921411 199.13925253 425.64472164 196.76835632 425.65179443 C190.38628327 425.6656444 184.00448296 425.65465423 177.62242532 425.63808322 C171.59513385 425.62555176 165.56786753 425.62985609 159.54056969 425.63321293 C147.59884526 425.63906664 135.65722687 425.6250166 123.7155304 425.6002655 C112.16861501 425.5763359 100.62184114 425.56927076 89.0749054 425.57975769 C76.44940237 425.5912039 63.82396448 425.59305267 51.19846219 425.57865959 C49.84871019 425.57713401 48.49895818 425.57561365 47.14920616 425.57409859 C46.48538353 425.57334077 45.82156089 425.57258296 45.13762242 425.57180218 C40.49317961 425.56708914 35.84876722 425.56899986 31.20432472 425.57316399 C24.93896427 425.57796437 18.67379762 425.56770605 12.40847397 425.54620934 C10.12051611 425.54068353 7.83253947 425.54013705 5.54458046 425.5451622 C-24.28643226 425.60242684 -50.13781796 419.12269022 -72.90922546 399.13371277 C-73.74067078 398.40410339 -74.57211609 397.67449402 -75.42875671 396.92277527 C-95.75214663 377.77394203 -105.75512651 351.08002485 -107.02605844 323.60832119 C-107.2114864 317.00355289 -107.19264621 310.3977366 -107.18388367 303.79093933 C-107.18824123 301.59593026 -107.19342782 299.40092271 -107.19937134 297.20591736 C-107.21266087 291.29246208 -107.21335125 285.37907111 -107.21080804 279.46560383 C-107.20973138 274.50600994 -107.21463939 269.54642869 -107.21941346 264.58683753 C-107.23110436 252.2061793 -107.23030355 239.82555633 -107.22385665 227.44489571 C-107.2183717 216.08075017 -107.2323506 204.71671635 -107.25246936 193.35258889 C-107.27015737 182.9749262 -107.27607538 172.59730052 -107.27283162 162.21962333 C-107.27102993 156.0426208 -107.27354247 149.86570177 -107.28754616 143.68871307 C-107.30023758 137.87398527 -107.29807482 132.05943826 -107.28513527 126.24471283 C-107.28279428 124.12816808 -107.28541347 122.01161016 -107.29375839 119.89508057 C-107.4064732 89.04854534 -102.47063559 61.89883782 -82.90922546 37.13371277 C-82.31754578 36.37574402 -81.72586609 35.61777527 -81.11625671 34.83683777 C-64.24376505 14.54667722 -38.55897655 2.86819303 -12.63130224 0.34611452 C-8.41814077 0.01736447 -4.22410429 -0.00757692 0 0 Z M44.09077454 112.13371277 C41.72097441 115.08748775 41.72097441 115.08748775 42.09077454 119.13371277 C41.39516418 119.11800232 40.69955383 119.10229187 39.98286438 119.08610535 C36.81058483 119.02348414 33.63843568 118.984636 30.46577454 118.94621277 C29.37136047 118.92107605 28.27694641 118.89593933 27.14936829 118.87004089 C20.41925223 118.80885802 15.99300528 119.23103469 10.4641571 123.34367371 C8.42376005 126.00308596 8.70948147 128.12894325 8.70259094 131.45011902 C8.69313446 132.7557782 8.68367798 134.06143738 8.67393494 135.40666199 C8.6793091 136.83651531 8.68546316 138.26636587 8.69233704 139.69621277 C8.69031468 141.16773116 8.68740189 142.63924858 8.68363953 144.11076355 C8.67921268 147.20102951 8.68565113 150.29103561 8.69966125 153.38127136 C8.71663364 157.31391474 8.70699127 161.24593844 8.68894386 165.17855835 C8.67801245 168.22264622 8.68159683 171.26659162 8.68932724 174.3106842 C8.69130981 175.7585406 8.68893935 177.20641051 8.68188858 178.6542511 C8.60879582 197.90642724 14.46513582 213.11893134 27.95796204 227.06340027 C37.77516601 236.22883966 49.96977425 241.70477987 63.09077454 244.13371277 C63.17714172 245.40343933 63.26350891 246.67316589 63.35249329 247.98136902 C65.13819156 271.00227669 72.44960268 287.90559555 90.09077454 303.13371277 C105.82053683 315.23683137 125.53334574 320.08498615 145.11811829 317.66496277 C165.12259575 314.83052234 180.84454048 305.44716214 194.09077454 290.13371277 C202.5084668 278.79242605 207.25865802 266.04617746 207.18843079 251.86027527 C207.18520813 250.70656433 207.18198547 249.55285339 207.17866516 248.36418152 C207.17028625 247.17437683 207.16190735 245.98457214 207.15327454 244.75871277 C207.14650696 242.93920105 207.14650696 242.93920105 207.13960266 241.08293152 C207.12785808 238.0998077 207.11143294 235.11678597 207.09077454 232.13371277 C207.99827454 231.85656433 208.90577454 231.57941589 209.84077454 231.29386902 C219.12421053 227.97995016 224.26124499 220.92138684 228.46577454 212.32121277 C230.22223811 203.36324854 229.71978466 195.11025563 225.09077454 187.13371277 C219.69568239 179.35185174 212.53305004 173.92296197 203.09077454 172.13371277 C191.63283638 171.17495525 182.65947869 172.79461698 173.71577454 180.25871277 C166.76960692 187.07215107 163.85123313 192.89980198 163.52827454 202.69621277 C163.89045127 212.16999364 166.68119691 218.40852053 173.08296204 225.33683777 C176.5264281 228.41853892 181.29736477 232.13371277 186.09077454 232.13371277 C185.49617313 257.980806 185.49617313 257.980806 182.09077454 267.13371277 C181.61704407 268.41181824 181.61704407 268.41181824 181.13374329 269.71574402 C176.52784224 280.31094396 167.43766634 288.27405286 157.09077454 293.13371277 C142.95251549 298.51769747 128.40736367 298.52336633 114.25093079 293.03215027 C111.77164155 291.84789809 109.43569601 290.56444283 107.09077454 289.13371277 C106.39468079 288.71476746 105.69858704 288.29582214 104.98139954 287.86418152 C94.54774057 280.84774807 89.30732662 269.99992109 86.34077454 258.13371277 C85.95201814 253.46863601 86.01586019 248.81169739 86.09077454 244.13371277 C87.02276672 243.92617371 87.95475891 243.71863464 88.91499329 243.50480652 C107.99125816 238.89486991 122.41375272 229.01655909 133.18061829 212.60246277 C140.26109025 199.74467318 141.24204799 186.41252193 141.29389954 171.99699402 C141.29959961 170.75878403 141.30529968 169.52057404 141.31117249 168.24484253 C141.32057682 165.64034367 141.32713819 163.03583315 141.33100891 160.43132019 C141.33753331 157.76887796 141.34942847 155.10726331 141.37202454 152.44499207 C141.40245493 148.5872265 141.41304977 144.72986613 141.41889954 140.87199402 C141.43741974 139.09058769 141.43741974 139.09058769 141.45631409 137.27319336 C141.49341856 129.25984871 141.49341856 129.25984871 138.09077454 122.13371277 C132.00196942 118.23524292 125.69103815 118.78332091 118.65327454 118.94621277 C116.98361633 118.9665155 116.98361633 118.9665155 115.28022766 118.98722839 C112.54990242 119.0223828 109.8205971 119.0715917 107.09077454 119.13371277 C106.97991516 118.19269714 106.86905579 117.25168152 106.75483704 116.28215027 C106.36668761 112.9162225 106.36668761 112.9162225 103.46577454 110.75871277 C99.5191596 108.85849076 97.41542409 108.4386798 93.09077454 109.13371277 C90.12474826 110.9359395 87.66778117 112.9796995 86.09077454 116.13371277 C85.76491735 120.54392171 85.76616647 124.96296611 85.71577454 129.38371277 C85.67839172 130.61218933 85.64100891 131.84066589 85.60249329 133.10636902 C85.33096007 140.51356837 85.33096007 140.51356837 88.48921204 146.93058777 C91.52482575 149.50128767 92.38816353 150.06615402 96.34077454 150.44621277 C100.81179283 150.07362791 102.77552026 149.13322854 106.09077454 146.13371277 C107.05958044 143.00105798 107.05958044 143.00105798 107.09077454 140.13371277 C111.05077454 140.13371277 115.01077454 140.13371277 119.09077454 140.13371277 C119.0463898 147.05352344 118.97631217 153.97244178 118.883255 160.89176941 C118.85517093 163.24163174 118.83389445 165.59158634 118.81977844 167.9415741 C118.79817469 171.33552359 118.75143427 174.72837831 118.70014954 178.12199402 C118.6989209 179.15890884 118.69769226 180.19582367 118.69642639 181.26416016 C118.50602394 190.92212505 115.99894777 199.3792354 110.09077454 207.13371277 C109.28639954 208.34027527 109.28639954 208.34027527 108.46577454 209.57121277 C100.79882572 217.84344701 90.95015759 222.80269476 79.67671204 223.47746277 C64.84868916 223.95863087 53.03217274 220.74267196 41.84077454 210.50871277 C34.90755856 203.20985051 31.06651435 194.07818559 30.88545227 184.06803894 C30.86550705 183.08739975 30.84556183 182.10676056 30.82501221 181.09640503 C30.80829971 180.05039627 30.79158722 179.00438751 30.77436829 177.92668152 C30.75358719 176.84615005 30.73280609 175.76561859 30.71139526 174.65234375 C30.64613417 171.20869666 30.58712379 167.76497482 30.52827454 164.32121277 C30.48506703 161.98331449 30.44145203 159.6454237 30.39741516 157.30754089 C30.29047678 151.58300766 30.18914337 145.85839941 30.09077454 140.13371277 C34.05077454 140.13371277 38.01077454 140.13371277 42.09077454 140.13371277 C42.58577454 142.60871277 42.58577454 142.60871277 43.09077454 145.13371277 C46.07100546 148.5946261 47.79954935 150.03626181 52.40327454 150.38371277 C56.33135923 150.11740194 58.04725396 149.56852923 61.09077454 147.13371277 C64.42981466 141.9760297 63.41873394 135.60479668 63.40327454 129.69621277 C63.41938782 128.46838074 63.4355011 127.24054871 63.45210266 125.97550964 C63.45274719 124.79150574 63.45339172 123.60750183 63.45405579 122.38761902 C63.45703674 121.30810974 63.4600177 120.22860046 63.46308899 119.11637878 C63.04174445 115.74092554 62.07266694 113.87066989 60.09077454 111.13371277 C55.02442788 107.33395278 48.84734855 108.46435567 44.09077454 112.13371277 Z " fill="#1B9EA3" transform="translate(106.90922546386719,1.8662872314453125)"/>
<path d="M0 0 C0.99 0.33 1.98 0.66 3 1 C-2.82096179 5.78845186 -9.06295235 9.19739447 -15.9375 12.1875 C-16.64430908 12.50783203 -17.35111816 12.82816406 -18.0793457 13.15820312 C-34.6032286 20.0825649 -51.72916978 20.57587644 -69.35253906 20.4699707 C-71.73804317 20.4704807 -74.12354743 20.47274409 -76.50904846 20.47660828 C-82.92772541 20.48198284 -89.34610879 20.46274079 -95.76473331 20.43850732 C-101.81774019 20.41738295 -107.8707635 20.41809266 -113.92380056 20.41647889 C-125.90579614 20.41262003 -137.8876827 20.39026857 -149.86962891 20.35668945 C-161.47803201 20.32418418 -173.08637756 20.30298944 -184.69482422 20.29516602 C-185.41171458 20.29468052 -186.12860493 20.29419503 -186.86721924 20.29369483 C-189.74945538 20.2917658 -192.63169153 20.28985366 -195.51392771 20.28797873 C-206.61292038 20.28044348 -217.71190372 20.2648249 -228.81088491 20.24748212 C-232.15631376 20.24225501 -235.50174243 20.23732146 -238.84717274 20.2331202 C-246.46489464 20.22332979 -254.08257434 20.2088266 -261.7002697 20.1862812 C-264.0065237 20.1801667 -266.31278279 20.17571213 -268.61904335 20.17303848 C-271.76634588 20.16904737 -274.91357027 20.15892026 -278.06085205 20.14717102 C-278.97300232 20.14735538 -279.88515259 20.14753975 -280.82494378 20.14772969 C-285.65483393 20.12235999 -290.23692707 19.81204744 -295 19 C-295 18.67 -295 18.34 -295 18 C-293.72262844 17.99761165 -292.44525688 17.99522329 -291.12917709 17.99276257 C-260.77513521 17.93534487 -230.42117302 17.86257333 -200.06721638 17.77101372 C-196.32736334 17.75974619 -192.58750992 17.74860763 -188.84765625 17.73754883 C-187.7308973 17.7342433 -187.7308973 17.7342433 -186.59157756 17.730871 C-174.55255639 17.69554362 -162.51353527 17.67065379 -150.47448155 17.64965298 C-138.11204661 17.62785454 -125.74967865 17.59476588 -113.38730073 17.55129844 C-105.76523301 17.52485121 -98.14324869 17.5071049 -90.52113739 17.50065396 C-84.66658196 17.49475325 -78.81214945 17.47310876 -72.95765305 17.44572449 C-70.56322164 17.43695653 -68.16876549 17.43321909 -65.7743187 17.43499184 C-52.2410538 17.44184559 -40.65386167 17.17628213 -28 12 C-28.33 11.34 -28.66 10.68 -29 10 C-27.68 10 -26.36 10 -25 10 C-25 10.66 -25 11.32 -25 12 C-18.07 9.525 -18.07 9.525 -11 7 C-11.33 5.35 -11.66 3.7 -12 2 C-9 1 -9 1 -6.5625 1.5625 C-3.52471289 2.08114658 -2.63756586 1.40670179 0 0 Z " fill="#30978F" transform="translate(380,407)"/>
<path d="M0 0 C0.495 2.97 0.495 2.97 1 6 C-3.62 6 -8.24 6 -13 6 C-13 6.66 -13 7.32 -13 8 C-13.63808594 8.06058594 -14.27617187 8.12117188 -14.93359375 8.18359375 C-15.75988281 8.26738281 -16.58617187 8.35117187 -17.4375 8.4375 C-18.67306641 8.55931641 -18.67306641 8.55931641 -19.93359375 8.68359375 C-21.98662025 8.78930815 -21.98662025 8.78930815 -23 10 C-25.14558827 10.08775605 -27.29404421 10.10695219 -29.44140625 10.09765625 C-30.74658203 10.09443359 -32.05175781 10.09121094 -33.39648438 10.08789062 C-34.7851569 10.07953401 -36.17382877 10.07106905 -37.5625 10.0625 C-38.95507656 10.05748666 -40.34765481 10.05292347 -41.74023438 10.04882812 C-45.1601987 10.03699434 -48.58007844 10.0205088 -52 10 C-52 9.34 -52 8.68 -52 8 C-53.9490625 7.8453125 -53.9490625 7.8453125 -55.9375 7.6875 C-60.76110208 7.14474921 -65.66197041 6.26584581 -70 4 C-70.33 3.01 -70.66 2.02 -71 1 C-70.47792969 1.18175781 -69.95585937 1.36351562 -69.41796875 1.55078125 C-60.83458403 4.48205974 -52.10985433 7.44738016 -43 8 C-42.154375 8.05285156 -41.30875 8.10570312 -40.4375 8.16015625 C-27.86934553 8.55291108 -15.62240996 6.30398484 -4.22265625 0.98828125 C-2 0 -2 0 0 0 Z " fill="#2F9492" transform="translate(279,311)"/>
<path d="M0 0 C0.66 0 1.32 0 2 0 C1.36306621 4.59123107 -0.44332009 8.46091506 -2.5 12.5625 C-2.84804688 13.26052734 -3.19609375 13.95855469 -3.5546875 14.67773438 C-7.00118997 21.36908226 -11.23947982 27.18158645 -16 33 C-16.33 32.01 -16.66 31.02 -17 30 C-16.01 28.515 -16.01 28.515 -15 27 C-15.33 26.01 -15.66 25.02 -16 24 C-16 21 -16 21 -14.1875 18.875 C-12 17 -12 17 -9 16 C-7.77554716 14.37051936 -7.77554716 14.37051936 -6.8125 12.4375 C-6.214375 11.303125 -5.61625 10.16875 -5 9 C-4.01 9 -3.02 9 -2 9 C-1.7834375 7.88625 -1.7834375 7.88625 -1.5625 6.75 C-1.09812508 4.47972261 -0.58136431 2.24240521 0 0 Z " fill="#259C8D" transform="translate(417,359)"/>
<path d="M0 0 C2.01822917 0.06510417 4.03645833 0.13020833 6.0546875 0.1953125 C4.18270622 1.44330002 2.30024399 2.67587344 0.40266418 3.88458252 C-2.22722557 6.0337789 -2.22722557 6.0337789 -2.54658508 9.37176514 C-2.5299305 11.25040253 -2.5299305 11.25040253 -2.51293945 13.16699219 C-2.51366959 13.8600798 -2.51439972 14.55316742 -2.51515198 15.26725769 C-2.51167667 17.55137216 -2.4728241 19.83343073 -2.43359375 22.1171875 C-2.42426528 23.70329677 -2.41714932 25.28942048 -2.41215515 26.87554932 C-2.39308764 31.04506384 -2.34399013 35.21370391 -2.28863525 39.38287354 C-2.23743675 43.63924327 -2.2146399 47.89575467 -2.18945312 52.15234375 C-2.13587011 60.50040076 -2.05056158 68.84774778 -1.9453125 77.1953125 C-2.6053125 76.8653125 -3.2653125 76.5353125 -3.9453125 76.1953125 C-3.99158991 66.58146832 -4.02715823 56.96766229 -4.04893684 47.35373116 C-4.05938784 42.88991495 -4.07357094 38.42617478 -4.09619141 33.96240234 C-4.11787302 29.65710576 -4.1298712 25.35188245 -4.13506699 21.04653549 C-4.13877119 19.40143556 -4.14600427 17.75633977 -4.15677261 16.1112709 C-4.17122549 13.81253546 -4.17329308 11.51410537 -4.17236328 9.21533203 C-4.1768045 7.9051712 -4.18124573 6.59501038 -4.18582153 5.24514771 C-3.92205637 1.90040727 -3.5635033 0.35778146 0 0 Z " fill="#33949F" transform="translate(118.9453125,120.8046875)"/>
<path d="M0 0 C0.66 0.33 1.32 0.66 2 1 C0.54600704 4.83325416 -1.3080115 6.28279605 -5 8 C-6.65 8 -8.3 8 -10 8 C-9.67 18.89 -9.34 29.78 -9 41 C-10.485 41.495 -10.485 41.495 -12 42 C-12.12375 42.7425 -12.2475 43.485 -12.375 44.25 C-12.95486701 46.80141485 -13.73708739 48.7267573 -15 51 C-16.55042453 47.89915094 -15.12204181 45.77304761 -14.125 42.5 C-12.55015727 37.06724328 -11.87551516 32.03399831 -11.859375 26.3671875 C-11.85534668 25.21412109 -11.85131836 24.06105469 -11.84716797 22.87304688 C-11.86550069 20.56891289 -11.92600398 18.26467032 -12.03173828 15.96289062 C-12.05476753 12.69959778 -11.99158302 10.11363899 -11 7 C-7.97257459 4.21445313 -4.75127897 2.622548 -1 1 C-0.67 0.67 -0.34 0.34 0 0 Z " fill="#2E9592" transform="translate(325,227)"/>
<path d="M0 0 C3.96 0 7.92 0 12 0 C12.66 2.31 13.32 4.62 14 7 C13.34 7 12.68 7 12 7 C11.34 5.02 10.68 3.04 10 1 C7.03 1 4.06 1 1 1 C1.11880124 6.97749763 1.24308373 12.95484764 1.37231445 18.93212891 C1.41546649 20.96302237 1.45715433 22.99394752 1.49731445 25.02490234 C1.55549812 27.95419844 1.61905072 30.88333794 1.68359375 33.8125 C1.70030624 34.71178223 1.71701874 35.61106445 1.73423767 36.53759766 C1.35575804 45.33936365 1.35575804 45.33936365 4 53 C4.04080783 54.99958364 4.04254356 57.00045254 4 59 C-0.01964863 54.98035137 -0.11809849 49.02642666 -0.22705078 43.59375 C-0.2267378 41.56247247 -0.2156584 39.53117565 -0.1953125 37.5 C-0.1924826 36.42371338 -0.18965271 35.34742676 -0.18673706 34.23852539 C-0.17560731 30.82556701 -0.15051595 27.4128781 -0.125 24 C-0.11496089 21.67578506 -0.10583667 19.35156598 -0.09765625 17.02734375 C-0.07569155 11.35145982 -0.04121151 5.67577549 0 0 Z " fill="#3C8F95" transform="translate(137,142)"/>
<path d="M0 0 C0.33 0 0.66 0 1 0 C1.33 2.64 1.66 5.28 2 8 C0.68 7.67 -0.64 7.34 -2 7 C-2.11214844 7.56847656 -2.22429687 8.13695312 -2.33984375 8.72265625 C-3.96203721 15.07359667 -6.46641109 17.54119677 -11.76953125 21.2265625 C-15.13963579 23.90612023 -17.04390484 27.21559478 -19 31 C-21 30 -21 30 -24 28 C-23.3709375 27.52691406 -22.741875 27.05382812 -22.09375 26.56640625 C-13.03097051 19.56459017 -3.72762953 11.18288858 0 0 Z " fill="#269595" transform="translate(242,208)"/>
<path d="M0 0 C0.99 0 1.98 0 3 0 C3.6875 2.8125 3.6875 2.8125 4 6 C2.5625 7.875 2.5625 7.875 1 9 C0.01 8.67 -0.98 8.34 -2 8 C-1.6596875 9.6396875 -1.6596875 9.6396875 -1.3125 11.3125 C-1.209375 12.529375 -1.10625 13.74625 -1 15 C-2.3125 16.5 -2.3125 16.5 -4 18 C-4.68255989 20.32873375 -5.35050775 22.66182791 -6 25 C-6.66 25.33 -7.32 25.66 -8 26 C-7.46778631 20.07912269 -6.19145675 15.13465306 -4 9.625 C-3.59007812 8.55958984 -3.59007812 8.55958984 -3.171875 7.47265625 C-2.19107599 4.93892546 -1.21577159 2.43154319 0 0 Z " fill="#2B98AD" transform="translate(11,59)"/>
<path d="M0 0 C0.33 0.66 0.66 1.32 1 2 C0.22265625 4.1640625 0.22265625 4.1640625 -0.9375 6.625 C-1.31777344 7.44226563 -1.69804687 8.25953125 -2.08984375 9.1015625 C-2.39019531 9.72804688 -2.69054687 10.35453125 -3 11 C-3.99 11 -4.98 11 -6 11 C-6.061875 12.093125 -6.12375 13.18625 -6.1875 14.3125 C-7 18 -7 18 -9.1875 19.875 C-12.14403677 21.05761471 -14.84280652 21.63288448 -18 22 C-13.79218844 17.03694022 -9.46913437 12.20669795 -5.05078125 7.4296875 C-3.05610724 5.06647372 -1.5094548 2.69305905 0 0 Z " fill="#1D9C9E" transform="translate(306,283)"/>
<path d="M0 0 C3.77898655 0.72780482 7.51332674 1.57963713 11.25 2.5 C12.83554688 2.88671875 12.83554688 2.88671875 14.453125 3.28125 C17 4 17 4 18 5 C18.19059644 6.36793039 18.32321797 7.74405896 18.4296875 9.12109375 C18.5373645 10.39448608 18.5373645 10.39448608 18.6472168 11.69360352 C18.75996948 13.05183228 18.75996948 13.05183228 18.875 14.4375 C19.45583746 20.9746667 20.15451097 27.04476099 22.51171875 33.22265625 C23 35 23 35 22 38 C21.896875 37.360625 21.79375 36.72125 21.6875 36.0625 C21.460625 35.381875 21.23375 34.70125 21 34 C19.515 33.505 19.515 33.505 18 33 C16.82110499 29.95685604 16.8094268 26.81383195 16.68359375 23.578125 C16.64169922 22.55332031 16.59980469 21.52851563 16.55664062 20.47265625 C16.51732422 19.40917969 16.47800781 18.34570312 16.4375 17.25 C16.39431641 16.17105469 16.35113281 15.09210938 16.30664062 13.98046875 C16.20071011 11.32043572 16.09863579 8.66031188 16 6 C15.09636719 5.81824219 14.19273437 5.63648438 13.26171875 5.44921875 C12.08222656 5.19785156 10.90273437 4.94648438 9.6875 4.6875 C8.51574219 4.44386719 7.34398437 4.20023438 6.13671875 3.94921875 C3.11917264 3.03606345 1.89419215 2.44125126 0 0 Z " fill="#309395" transform="translate(153,241)"/>
<path d="M0 0 C3.96 1.98 7.92 3.96 12 6 C12.02704655 9.70838254 12.04686203 13.41656645 12.0625 17.125 C12.07087891 18.17171875 12.07925781 19.2184375 12.08789062 20.296875 C12.10375207 25.3090905 12.08177213 30.07665912 11 35 C10.67 35 10.34 35 10 35 C9.98018066 34.22809326 9.96036133 33.45618652 9.93994141 32.66088867 C9.84478857 29.16941042 9.73506953 25.67853848 9.625 22.1875 C9.5940625 20.97255859 9.563125 19.75761719 9.53125 18.50585938 C9.49257813 17.34248047 9.45390625 16.17910156 9.4140625 14.98046875 C9.36693115 13.37014771 9.36693115 13.37014771 9.31884766 11.72729492 C9.18407693 8.7839235 9.18407693 8.7839235 7 6 C5.2820354 4.79517061 5.2820354 4.79517061 3.375 3.8125 C2.26125 3.214375 1.1475 2.61625 0 2 C0 1.34 0 0.68 0 0 Z " fill="#2B9191" transform="translate(281,228)"/>
<path d="M0 0 C1.32 0 2.64 0 4 0 C4.33 1.32 4.66 2.64 5 4 C10.61 4.33 16.22 4.66 22 5 C22.33 5.66 22.66 6.32 23 7 C16.4 7 9.8 7 3 7 C3 6.34 3 5.68 3 5 C1.35 4.67 -0.3 4.34 -2 4 C-1.34 2.68 -0.68 1.36 0 0 Z " fill="#269A9C" transform="translate(290,168)"/>
<path d="M0 0 C1.00289062 0.10183594 2.00578125 0.20367187 3.0390625 0.30859375 C3.80992187 0.39238281 4.58078125 0.47617188 5.375 0.5625 C5.375 2.2125 5.375 3.8625 5.375 5.5625 C4.859375 5.3975 4.34375 5.2325 3.8125 5.0625 C-0.70208398 4.13643149 -5.21863721 4.15246391 -9.625 5.5625 C-7.4949242 -0.37128258 -6.14891436 -0.64349104 0 0 Z " fill="#2D97A1" transform="translate(161.625,107.4375)"/>
<path d="M0 0 C0.66 0 1.32 0 2 0 C1.84660156 0.67417969 1.69320313 1.34835938 1.53515625 2.04296875 C0.91516143 5.46877952 0.6647426 8.83893447 0.4375 12.3125 C0.35371094 13.56675781 0.26992188 14.82101563 0.18359375 16.11328125 C0.12300781 17.06589844 0.06242187 18.01851562 0 19 C-0.99 18.34 -1.98 17.68 -3 17 C-2.67 13.7 -2.34 10.4 -2 7 C-2.66 7 -3.32 7 -4 7 C-3.34 5.68 -2.68 4.36 -2 3 C-1.34 3 -0.68 3 0 3 C0 2.01 0 1.02 0 0 Z " fill="#2C9497" transform="translate(271,192)"/>
<path d="M0 0 C2 2 2 2 2 5 C2.66 5 3.32 5 4 5 C3.25 10.75 3.25 10.75 1 13 C-0.80317221 9.03302114 -1.49202991 5.3177458 -2 1 C-1.34 0.67 -0.68 0.34 0 0 Z " fill="#1E9EB3" transform="translate(4,84)"/>
<path d="M0 0 C-0.33 0.763125 -0.66 1.52625 -1 2.3125 C-2.17436686 4.99069135 -2.17436686 4.99069135 -2 8 C-3.32 7.34 -4.64 6.68 -6 6 C-5.67 5.34 -5.34 4.68 -5 4 C-5.99 4.33 -6.98 4.66 -8 5 C-8 4.34 -8 3.68 -8 3 C-8.99 2.67 -9.98 2.34 -11 2 C-9.73392393 1.46770674 -8.46189588 0.94955456 -7.1875 0.4375 C-6.47980469 0.14746094 -5.77210937 -0.14257812 -5.04296875 -0.44140625 C-3 -1 -3 -1 0 0 Z " fill="#269AAD" transform="translate(74,8)"/>
<path d="M0 0 C0.66 0 1.32 0 2 0 C1 7.42857143 1 7.42857143 0 11 C-1.32 10.34 -2.64 9.68 -4 9 C-3.67 7.35 -3.34 5.7 -3 4 C-2.01 3.67 -1.02 3.34 0 3 C0 2.01 0 1.02 0 0 Z " fill="#249D8B" transform="translate(421,346)"/>
<path d="M0 0 C0.66 0.99 1.32 1.98 2 3 C0.04669132 4.03041513 -1.91281528 5.0490893 -3.875 6.0625 C-4.96554688 6.63097656 -6.05609375 7.19945312 -7.1796875 7.78515625 C-8.11039063 8.18605469 -9.04109375 8.58695313 -10 9 C-10.66 8.67 -11.32 8.34 -12 8 C-10.37615858 6.85252535 -8.75088944 5.7070709 -7.125 4.5625 C-6.22007813 3.92441406 -5.31515625 3.28632813 -4.3828125 2.62890625 C-2 1 -2 1 0 0 Z " fill="#2F96A4" transform="translate(53,15)"/>
<path d="M0 0 C0.33 1.98 0.66 3.96 1 6 C-2.3 5.67 -5.6 5.34 -9 5 C-9 4.34 -9 3.68 -9 3 C-2.25 0 -2.25 0 0 0 Z " fill="#249995" transform="translate(279,311)"/>
<path d="M0 0 C0 0.33 0 0.66 0 1 C-1.98 1 -3.96 1 -6 1 C-6 1.99 -6 2.98 -6 4 C-9.31968684 4.85669338 -11.49482393 5 -15 5 C-15 4.34 -15 3.68 -15 3 C-14.34 3 -13.68 3 -13 3 C-13 2.34 -13 1.68 -13 1 C-8.59085217 -0.10228696 -4.51617599 -0.07654536 0 0 Z " fill="#2C98AB" transform="translate(95,3)"/>
<path d="M0 0 C0.33 0 0.66 0 1 0 C1.66 4.29 2.32 8.58 3 13 C1.68 13.99 0.36 14.98 -1 16 C-1.09688221 10.55306686 -1.12862175 5.36095333 0 0 Z " fill="#2C94A2" transform="translate(2,86)"/>
<path d="M0 0 C1 2 1 2 0.3984375 4.05859375 C-2.36953991 10.49255652 -2.36953991 10.49255652 -5.5625 13.0625 C-8 14 -8 14 -11 14 C-10.45730469 13.40832031 -9.91460937 12.81664062 -9.35546875 12.20703125 C-8.64003906 11.41683594 -7.92460937 10.62664062 -7.1875 9.8125 C-6.47980469 9.03519531 -5.77210938 8.25789063 -5.04296875 7.45703125 C-3.06664371 5.08015085 -1.51417406 2.68921134 0 0 Z " fill="#299492" transform="translate(306,283)"/>
<path d="M0 0 C2.10551443 3.15827164 3.88229719 6.40889542 5.68359375 9.74609375 C6.98172313 11.96870696 8.4166014 13.97343445 10 16 C7.67578125 15.83203125 7.67578125 15.83203125 5 15 C3.41796875 12.63671875 3.41796875 12.63671875 2.1875 9.6875 C1.76855469 8.72199219 1.34960938 7.75648438 0.91796875 6.76171875 C0 4 0 4 0 0 Z " fill="#299391" transform="translate(271,212)"/>
<path d="M0 0 C1 2 1 2 0.44140625 4.1640625 C0.15136719 4.97617187 -0.13867188 5.78828125 -0.4375 6.625 C-0.72496094 7.44226562 -1.01242188 8.25953125 -1.30859375 9.1015625 C-1.65083984 10.04128906 -1.65083984 10.04128906 -2 11 C-3.65 11.33 -5.3 11.66 -7 12 C-5.44298069 7.32894208 -2.91552627 3.91294315 0 0 Z " fill="#2F96A6" transform="translate(21,43)"/>
<path d="M0 0 C2.50719458 2.32649587 4.32183601 4.82681521 6.1875 7.6875 C6.71730469 8.49574219 7.24710938 9.30398438 7.79296875 10.13671875 C8.39044922 11.05904297 8.39044922 11.05904297 9 12 C7 11 5 10 3 9 C3 8.34 3 7.68 3 7 C2.01 7.33 1.02 7.66 0 8 C-1.43088528 5.13822943 -0.59991697 3.06624227 0 0 Z " fill="#239495" transform="translate(178,283)"/>
<path d="M0 0 C-1.95649397 0.83764268 -3.91525556 1.66999059 -5.875 2.5 C-7.51082031 3.19609375 -7.51082031 3.19609375 -9.1796875 3.90625 C-12 5 -12 5 -14 5 C-13 2 -13 2 -11.07421875 1.015625 C-9.89279297 0.63664062 -9.89279297 0.63664062 -8.6875 0.25 C-7.51767578 -0.14445312 -7.51767578 -0.14445312 -6.32421875 -0.546875 C-3.83078909 -1.03298902 -2.3818103 -0.80665429 0 0 Z " fill="#2D988C" transform="translate(371,416)"/>
<path d="M0 0 C2.83419229 3.29708329 3.96554174 6.47689646 5.1875 10.625 C5.53167969 11.77226563 5.87585938 12.91953125 6.23046875 14.1015625 C7 17 7 17 7 19 C6.34 19 5.68 19 5 19 C4.72285156 18.07316406 4.44570313 17.14632812 4.16015625 16.19140625 C3.61681641 14.39509766 3.61681641 14.39509766 3.0625 12.5625 C2.70285156 11.36753906 2.34320313 10.17257813 1.97265625 8.94140625 C1.29110858 6.14132455 1.29110858 6.14132455 0 5 C-0.04063832 3.33382885 -0.042721 1.66611905 0 0 Z " fill="#329091" transform="translate(416,63)"/>
<path d="M0 0 C0.86625 0.556875 0.86625 0.556875 1.75 1.125 C0.1 2.775 -1.55 4.425 -3.25 6.125 C-4.24 4.475 -5.23 2.825 -6.25 1.125 C-2.80384615 -1.09038462 -2.80384615 -1.09038462 0 0 Z " fill="#229B9A" transform="translate(278.25,281.875)"/>
<path d="M0 0 C1.051875 0.495 1.051875 0.495 2.125 1 C5.26003116 2.09044562 7.70563182 2.15322643 11 2 C11 3.65 11 5.3 11 7 C6.00724943 5.72278474 3.42388092 3.82669043 0 0 Z " fill="#25A09E" transform="translate(43,407)"/>
<path d="M0 0 C-2.31 2.31 -4.62 4.62 -7 7 C-8.04449911 3.86650268 -7.93423645 3.01031744 -7 0 C-3.98968256 -0.93423645 -3.13349732 -1.04449911 0 0 Z " fill="#279989" transform="translate(400,393)"/>
<path d="M0 0 C0.66 0.33 1.32 0.66 2 1 C0.549046 4.82524236 -1.38181932 6.19090966 -5 8 C-5.66 8 -6.32 8 -7 8 C-7 7.01 -7 6.02 -7 5 C-5.46875 3.61328125 -5.46875 3.61328125 -3.5 2.3125 C-2.8503125 1.87550781 -2.200625 1.43851563 -1.53125 0.98828125 C-1.0259375 0.66214844 -0.520625 0.33601562 0 0 Z " fill="#229894" transform="translate(325,227)"/>
<path d="M0 0 C0.66 0 1.32 0 2 0 C1.34580901 5.06998019 -0.8546409 9.41990777 -3 14 C-5 11 -5 11 -5 9 C-4.01 9 -3.02 9 -2 9 C-1.7834375 7.88625 -1.7834375 7.88625 -1.5625 6.75 C-1.09812508 4.47972261 -0.58136431 2.24240521 0 0 Z " fill="#2D978A" transform="translate(417,359)"/>
<path d="M0 0 C4.10958767 1.45044271 7.43258745 3.51110752 11 6 C7.86650268 7.04449911 7.01031744 6.93423645 4 6 C4 5.01 4 4.02 4 3 C2.68 2.34 1.36 1.68 0 1 C0 0.67 0 0.34 0 0 Z " fill="#279595" transform="translate(373,16)"/>
<path d="M0 0 C3.60271909 0.97370786 4.79777091 1.6899154 6.875 4.875 C8.04541473 8.12615202 7.98612444 8.87952402 7 12 C6.01993141 10.37554381 5.04097364 8.75041739 4.0625 7.125 C3.51722656 6.22007812 2.97195313 5.31515625 2.41015625 4.3828125 C1.56101983 2.94798364 0.74562276 1.49124552 0 0 Z " fill="#2D9492" transform="translate(327,183)"/>
<path d="M0 0 C0.90105469 0.00902344 1.80210937 0.01804687 2.73046875 0.02734375 C3.41753906 0.03894531 4.10460937 0.05054688 4.8125 0.0625 C1.85071227 1.73360042 -0.55821192 2.38932752 -3.9375 2.6875 C-4.73671875 2.76226562 -5.5359375 2.83703125 -6.359375 2.9140625 C-6.96265625 2.96304687 -7.5659375 3.01203125 -8.1875 3.0625 C-8.1875 2.4025 -8.1875 1.7425 -8.1875 1.0625 C-5.17259443 0.05753148 -3.14568308 -0.04085303 0 0 Z " fill="#319787" transform="translate(345.1875,422.9375)"/>
<path d="M0 0 C-2.64 1.98 -5.28 3.96 -8 6 C-7.75 3.625 -7.75 3.625 -7 1 C-4.12732844 -1.10662581 -3.46720491 -1.15573497 0 0 Z " fill="#279889" transform="translate(392,401)"/>
<path d="M0 0 C2.60608273 2.5162178 4.89381685 5.05134359 7 8 C6.67 8.66 6.34 9.32 6 10 C2.64888166 7.76592111 1.18446044 6.73784176 0.1875 2.75 C0.125625 1.8425 0.06375 0.935 0 0 Z " fill="#2A9397" transform="translate(123,214)"/>
<path d="M0 0 C0.33 0.66 0.66 1.32 1 2 C0.67 2.66 0.34 3.32 0 4 C-0.66 4 -1.32 4 -2 4 C-2 4.99 -2 5.98 -2 7 C-3.32 6.34 -4.64 5.68 -6 5 C-3.375 1.125 -3.375 1.125 0 0 Z " fill="#14A094" transform="translate(408,375)"/>
<path d="M0 0 C0.33 0.66 0.66 1.32 1 2 C0.00390625 4.1640625 0.00390625 4.1640625 -1.4375 6.625 C-1.91058594 7.44226563 -2.38367188 8.25953125 -2.87109375 9.1015625 C-3.24363281 9.72804687 -3.61617187 10.35453125 -4 11 C-5 8 -5 8 -4.25 5.5 C-3.06488343 3.12976686 -1.98707119 1.71610694 0 0 Z " fill="#2D9597" transform="translate(223,197)"/>
<path d="M0 0 C0.33 0.66 0.66 1.32 1 2 C1.66 2 2.32 2 3 2 C3 3.65 3 5.3 3 7 C1.35 6.67 -0.3 6.34 -2 6 C-1.34 4.02 -0.68 2.04 0 0 Z " fill="#20A4B9" transform="translate(29,33)"/>
<path d="M0 0 C1.98 0 3.96 0 6 0 C5.1875 1.9375 5.1875 1.9375 4 4 C3.01 4.33 2.02 4.66 1 5 C0.01 4.34 -0.98 3.68 -2 3 C-1.34 3 -0.68 3 0 3 C0 2.01 0 1.02 0 0 Z " fill="#209CAE" transform="translate(89,4)"/>
<path d="M0 0 C4.19360449 0.67097672 7.40334352 2.8558394 11 5 C8 6 8 6 5.95703125 5.0390625 C5.24933594 4.57242187 4.54164063 4.10578125 3.8125 3.625 C3.09707031 3.16351563 2.38164062 2.70203125 1.64453125 2.2265625 C1.10183594 1.82179688 0.55914062 1.41703125 0 1 C0 0.67 0 0.34 0 0 Z " fill="#2B9692" transform="translate(213,290)"/>
<path d="M0 0 C1.65 0.33 3.3 0.66 5 1 C-0.14285714 5.42857143 -0.14285714 5.42857143 -4 6 C-4.33 5.34 -4.66 4.68 -5 4 C-3.68 4 -2.36 4 -1 4 C-0.67 2.68 -0.34 1.36 0 0 Z " fill="#309599" transform="translate(203,217)"/>
<path d="M0 0 C0.33 0 0.66 0 1 0 C1.144375 1.134375 1.28875 2.26875 1.4375 3.4375 C1.61171478 6.80777201 1.61171478 6.80777201 3 8 C3.04080783 9.99958364 3.04254356 12.00045254 3 14 C0.65454672 11.65454672 0.04491112 10.04014162 -0.09765625 6.73828125 C-0.08605469 5.93777344 -0.07445312 5.13726562 -0.0625 4.3125 C-0.05347656 3.50425781 -0.04445312 2.69601563 -0.03515625 1.86328125 C-0.02355469 1.24839844 -0.01195312 0.63351563 0 0 Z " fill="#30949B" transform="translate(138,187)"/>
<path d="M0 0 C0.66 0.33 1.32 0.66 2 1 C-0.25 3.5625 -0.25 3.5625 -3 6 C-4.32 5.67 -5.64 5.34 -7 5 C-4.69 3.35 -2.38 1.7 0 0 Z " fill="#2F9491" transform="translate(286,305)"/>
<path d="M0 0 C3.375 0.25 3.375 0.25 7 1 C8.4375 3.0625 8.4375 3.0625 9 5 C5.22454612 3.90931332 2.52956528 3.0916909 0 0 Z " fill="#2D9697" transform="translate(156,218)"/>
<path d="M0 0 C3.36591866 1.44253657 5.51047079 3.33264727 8 6 C6.02 6 4.04 6 2 6 C1.855625 5.38125 1.71125 4.7625 1.5625 4.125 C1.06847775 1.96741678 1.06847775 1.96741678 0 0 Z " fill="#289397" transform="translate(384,23)"/>
<path d="M0 0 C0.33 1.32 0.66 2.64 1 4 C0.34 4 -0.32 4 -1 4 C-1 4.66 -1 5.32 -1 6 C-2.32 5.34 -3.64 4.68 -5 4 C-3.35 2.68 -1.7 1.36 0 0 Z " fill="#2796A4" transform="translate(157,212)"/>
<path d="M0 0 C1 2 1 2 0.375 4.0625 C-1 6 -1 6 -3.625 6.75 C-4.800625 6.87375 -4.800625 6.87375 -6 7 C-4.02 4.69 -2.04 2.38 0 0 Z " fill="#289592" transform="translate(294,298)"/>
<path d="M0 0 C1.65 0.33 3.3 0.66 5 1 C4.01 2.98 3.02 4.96 2 7 C0.5393715 4.35261084 0 3.10551666 0 0 Z " fill="#259896" transform="translate(282,273)"/>
<path d="M0 0 C-1.125 1.5 -1.125 1.5 -3 3 C-6.1875 3.1875 -6.1875 3.1875 -9 3 C-6.07868595 -0.19953443 -4.37453972 -1.45817991 0 0 Z " fill="#2D99AA" transform="translate(64,12)"/>
</svg>
